<?xml version="1.0" encoding="utf-8"?>
<!-- Generator: Adobe Illustrator 22.0.1, SVG Export Plug-In . SVG Version: 6.00 Build 0)  -->
<svg version="1.1" id="Layer_1" xmlns="http://www.w3.org/2000/svg" xmlns:xlink="http://www.w3.org/1999/xlink" x="0px" y="0px"
	 viewBox="0 0 256 256" style="enable-background:new 0 0 256 256;" xml:space="preserve">
<style type="text/css">
	.st0{fill:none;stroke:#000000;stroke-width:2;stroke-miterlimit:10;}
</style>
<g>
	<path class="st0" d="M112.1,37.6L84.3,65.4C65.5,84.2,34.9,93.6,7.6,94.1c-4.8,0.1-7.1,5.9-3.7,9.3l147.6,147.6
		c3.4,3.4,9.2,1.1,9.3-3.7c0.6-27.3,9.9-57.9,28.7-76.7l27.8-27.8c29.1-29.1,29.1-76.2,0-105.3C188.3,8.6,141.2,8.6,112.1,37.6z"/>
	<path class="st0" d="M51.4,203.6c12,12,30.1,14.1,44.2,6.3l-50.5-50.5C37.4,173.5,39.5,191.6,51.4,203.6z"/>
	<path class="st0" d="M245.8,9.2c-7.8-7.8-20.6-7.8-28.4,0c-3,3-4.8,6.6-5.5,10.5c4.6,3.1,8.9,6.6,12.9,10.6c4,4,7.5,8.3,10.5,12.9
		c3.9-0.7,7.5-2.6,10.5-5.5C253.6,29.8,253.6,17.1,245.8,9.2z"/>
</g>
</svg>
